{"title":"Date.Movie.2006.unrated.1080p.WEB-DL.x265.AC3-5.1.mkv","magnet":"magnet:?xt=urn:btih:306e535172b44427565f12a828d41eb8c6f6cf65&dn=Date.Movie.2006.unrated.1080p.WEB-DL.x265.AC3-5.1.mkv&tr=udp%3A%2F%2Ftracker.leechers-paradise.org%3A6969&tr=udp%3A%2F%2Fzer0day.ch%3A1337&tr=udp%3A%2F%2Fopen.demonii.com%3A1337&tr=udp%3A%2F%2Ftracker.coppersurfer.tk%3A6969&tr=udp%3A%2F%2Fexodus.desync.com%3A6969","uploader":"Beastmaster1111","categoryP":"video","categoryS":"hd___movies","size":"879949499","seeders":"6","leechers":"6","description":"Video\r\nID                          : 1\r\nFormat                      : HEVC\r\nFormat/Info                 : High Efficiency Video Coding\r\nFormat profile              : <a class=\"__cf_email__\" href=\"/cdn-cgi/l/email-protection\" data-cfemail=\"92dff3fbfcd2dea6\">[email&#xA0;protected]</a><script data-cfhash=\"f9e31\" type=\"text/javascript\">/* <![CDATA[ */!function(t,e,r,n,c,a,p){try{t=document.currentScript||function(){for(t=document.getElementsByTagName('script'),e=t.length;e--;)if(t[e].getAttribute('data-cfhash'))return t[e]}();if(t&&(c=t.previousSibling)){p=t.parentNode;if(a=c.getAttribute('data-cfemail')){for(e='',r='0x'+a.substr(0,2)|0,n=2;a.length-n;n+=2)e+='%'+('0'+('0x'+a.substr(n,2)^r).toString(16)).slice(-2);p.replaceChild(document.createTextNode(decodeURIComponent(e)),c)}p.removeChild(t)}}catch(u){}}()/* ]]> */</script>@Main\r\nCodec ID                    : V_MPEGH/ISO/HEVC\r\nDuration                    : 1 h 24 min\r\nBit rate                    : 999 kb/s\r\nWidth                       : 1 920 pixels\r\nHeight                      : 1 080 pixels\r\nDisplay aspect ratio        : 16:9\r\nFrame rate mode             : Constant\r\nFrame rate                  : 23.976 (24000/1001) FPS\r\nColor space                 : YUV\r\nChroma subsampling          : 4:2:0\r\nBit depth                   : 8 bits\r\nBits/(Pixel*Frame)          : 0.020\r\nStream size                 : 605 MiB (72%)\r\nWriting library             : x265 2.1:[Windows][GCC 4.8.1][32 bit] 8bit\r\n\r\n\r\nAudio\r\nID                          : 2\r\nFormat                      : AC-3\r\nFormat/Info                 : Audio Coding 3\r\nFormat settings, Endianness : Big\r\nCodec ID                    : A_AC3\r\nDuration                    : 1 h 24 min\r\nBit rate mode               : Constant\r\nBit rate                    : 384 kb/s\r\nChannel(s)                  : 6 channels\r\nChannel positions           : Front: L C R, Side: L R, LFE\r\nSampling rate               : 48.0 kHz\r\nFrame rate                  : 31.250 FPS (1536 spf)\r\nBit depth                   : 16 bits\r\nCompression mode            : Lossy\r\nStream size                 : 233 MiB (28%)\r\nLanguage                    : English\r\n\r\n\r\nText #1\r\nLanguage                    : English\r\n\r\n\r\nText #2\r\nLanguage                    : Zulu\r\n\r\nText #3\r\nLanguage                    : French","last_updated":"2017-06-03T12:05:53.443Z","parsed":{"xt":"urn:btih:306e535172b44427565f12a828d41eb8c6f6cf65","dn":"Date.Movie.2006.unrated.1080p.WEB-DL.x265.AC3-5.1.mkv","tr":["udp://exodus.desync.com:6969","udp://open.demonii.com:1337","udp://tracker.coppersurfer.tk:6969","udp://tracker.leechers-paradise.org:6969","udp://zer0day.ch:1337"],"infoHash":"306e535172b44427565f12a828d41eb8c6f6cf65","infoHashBuffer":{"type":"Buffer","data":[48,110,83,81,114,180,68,39,86,95,18,168,40,212,30,184,198,246,207,101]},"name":"Date.Movie.2006.unrated.1080p.WEB-DL.x265.AC3-5.1.mkv","announce":["udp://exodus.desync.com:6969","udp://open.demonii.com:1337","udp://tracker.coppersurfer.tk:6969","udp://tracker.leechers-paradise.org:6969","udp://zer0day.ch:1337"],"urlList":[]}}